HIERARCHY
ROOT hips
{
  OFFSET 0 10.6860622 2.3727825e-15
  CHANNELS 6 Xposition Yposition Zposition Yrotation Xrotation Zrotation
  JOINT leftUpperLeg
  {
    OFFSET 0.6642549969 -0.9402397400000004 0
    CHANNELS 3 Yrotation Xrotation Zrotation
    JOINT leftLowerLeg
    {
      OFFSET 0 -3.997221335632195 0
      CHANNELS 3 Yrotation Xrotation Zrotation
      JOINT leftFoot
      {
        OFFSET -0.13777839790000004 -4.6145792000000005 -0.22186036399999998
        CHANNELS 3 Yrotation Xrotation Zrotation
        JOINT leftToes
        {
          OFFSET -0.03777410834999995 -0.9130806927000008 0.85230013
          CHANNELS 3 Yrotation Xrotation Zrotation
          End Site
          {
            OFFSET -0.03777410834999995 -0.9130806927000008 0.85230013
          }
        }
      }
    }
  }
  JOINT rightUpperLeg
  {
    OFFSET -0.6642778626 -0.9402397400000004 0
    CHANNELS 3 Yrotation Xrotation Zrotation
    JOINT rightLowerLeg
    {
      OFFSET 0 -3.997221452859387 0
      CHANNELS 3 Yrotation Xrotation Zrotation
      JOINT rightFoot
      {
        OFFSET 0.1377926176 -4.6145792000000005 -0.22185782299999995
        CHANNELS 3 Yrotation Xrotation Zrotation
        JOINT rightToes
        {
          OFFSET 0.037780746850000047 -0.9130806927000008 0.85230167
          CHANNELS 3 Yrotation Xrotation Zrotation
          End Site
          {
            OFFSET 0.037780746850000047 -0.9130806927000008 0.85230167
          }
        }
      }
    }
  }
  JOINT spine
  {
    OFFSET 0 0.13988381660000015 0
    CHANNELS 3 Yrotation Xrotation Zrotation
    JOINT chest
    {
      OFFSET 0 0.6191039003973773 0
      CHANNELS 3 Yrotation Xrotation Zrotation
      JOINT upperChest
      {
        OFFSET 0 0.9855186130586943 0
        CHANNELS 3 Yrotation Xrotation Zrotation
        JOINT leftShoulder
        {
          OFFSET 0.1807663869 1.5087829790000005 0
          CHANNELS 3 Yrotation Xrotation Zrotation
          JOINT leftUpperArm
          {
            OFFSET 0.5985063006419806 0 0
            CHANNELS 3 Yrotation Xrotation Zrotation
            JOINT leftLowerArm
            {
              OFFSET 2.2993332369501065 0 0
              CHANNELS 3 Yrotation Xrotation Zrotation
              JOINT leftHand
              {
                OFFSET 2.395047042602395 0 0
                CHANNELS 3 Yrotation Xrotation Zrotation
                JOINT leftIndexProximal
                {
                  OFFSET 0.5766295810000004 0.04556643899499946 0.17265095988184
                  CHANNELS 3 Yrotation Xrotation Zrotation
                  JOINT leftIndexIntermediate
                  {
                    OFFSET 0.2957229000000008 -0.019352197700001517 -0.007932640616999987
                    CHANNELS 3 Yrotation Xrotation Zrotation
                    JOINT leftIndexDistal
                    {
                      OFFSET 0.19008243099999922 -0.012484908149998475 -0.002786250786000012
                      CHANNELS 3 Yrotation Xrotation Zrotation
                      End Site
                      {
                        OFFSET 0.19008243099999922 -0.012484908149998475 -0.002786250786000012
                      }
                    }
                  }
                }
                JOINT leftMiddleProximal
                {
                  OFFSET 0.5834975091000001 0.0524350405149987 0.02204081888183999
                  CHANNELS 3 Yrotation Xrotation Zrotation
                  JOINT leftMiddleIntermediate
                  {
                    OFFSET 0.33880573540000003 -0.019871473270000717 -0.00000971183179999946
                    CHANNELS 3 Yrotation Xrotation Zrotation
                    JOINT leftMiddleDistal
                    {
                      OFFSET 0.20676022730000088 -0.012221336379999448 0.0001471936708000235
                      CHANNELS 3 Yrotation Xrotation Zrotation
                      End Site
                      {
                        OFFSET 0.20676022730000088 -0.012221336379999448 0.0001471936708000235
                      }
                    }
                  }
                }
                JOINT leftLittleProximal
                {
                  OFFSET 0.5344154683999995 -0.012880921405001189 -0.24414037221816004
                  CHANNELS 3 Yrotation Xrotation Zrotation
                  JOINT leftLittleIntermediate
                  {
                    OFFSET 0.21758961730000093 -0.011650919939999227 0.011893592810000034
                    CHANNELS 3 Yrotation Xrotation Zrotation
                    JOINT leftLittleDistal
                    {
                      OFFSET 0.1475273964999999 -0.008152365682999818 0.006001092492999946
                      CHANNELS 3 Yrotation Xrotation Zrotation
                      End Site
                      {
                        OFFSET 0.1475273964999999 -0.008152365682999818 0.006001092492999946
                      }
                    }
                  }
                }
                JOINT leftRingProximal
                {
                  OFFSET 0.5799399463000003 0.026911854694997794 -0.12150566991816003
                  CHANNELS 3 Yrotation Xrotation Zrotation
                  JOINT leftRingIntermediate
                  {
                    OFFSET 0.26167887460000006 -0.013480186499999602 0.010996293000000053
                    CHANNELS 3 Yrotation Xrotation Zrotation
                    JOINT leftRingDistal
                    {
                      OFFSET 0.17667108799999987 -0.008990287899999228 0.0055541023999999065
                      CHANNELS 3 Yrotation Xrotation Zrotation
                      End Site
                      {
                        OFFSET 0.17667108799999987 -0.008990287899999228 0.0055541023999999065
                      }
                    }
                  }
                }
                JOINT leftThumbProximal
                {
                  OFFSET 0.11018806699999972 -0.09448718900500053 0.17047963138184
                  CHANNELS 3 Yrotation Xrotation Zrotation
                  JOINT leftThumbIntermediate
                  {
                    OFFSET 0.31062601459999983 -0.08126270900000132 0.15443142000000007
                    CHANNELS 3 Yrotation Xrotation Zrotation
                    JOINT leftThumbDistal
                    {
                      OFFSET 0.21627175790000086 -0.08833193599999878 0.018771167799999988
                      CHANNELS 3 Yrotation Xrotation Zrotation
                      End Site
                      {
                        OFFSET 0.21627175790000086 -0.08833193599999878 0.018771167799999988
                      }
                    }
                  }
                }
              }
            }
          }
        }
        JOINT neck
        {
          OFFSET 0 1.5463305265074576 0
          CHANNELS 3 Yrotation Xrotation Zrotation
          JOINT head
          {
            OFFSET 0 0.8456443600000344 0
            CHANNELS 3 Yrotation Xrotation Zrotation
            JOINT leftEye
            {
              OFFSET 0.30408573140000006 0.5104519199999995 0.1276382305
              CHANNELS 3 Yrotation Xrotation Zrotation
              End Site
              {
                OFFSET 0.30408573140000006 0.5104519199999995 0.1276382305
              }
            }
            JOINT rightEye
            {
              OFFSET -0.30409491089999996 0.5104519199999995 0.1276379445
              CHANNELS 3 Yrotation Xrotation Zrotation
              End Site
              {
                OFFSET -0.30409491089999996 0.5104519199999995 0.1276379445
              }
            }
            JOINT jaw
            {
              OFFSET -3.155239131000001e-7 -0.11984121820000082 0.60178107
              CHANNELS 3 Yrotation Xrotation Zrotation
              End Site
              {
                OFFSET -3.155239131000001e-7 -0.11984121820000082 0.60178107
              }
            }
          }
        }
        JOINT rightShoulder
        {
          OFFSET -0.1807303465 1.5087829790000005 0
          CHANNELS 3 Yrotation Xrotation Zrotation
          JOINT rightUpperArm
          {
            OFFSET -0.5985063796536958 0 0
            CHANNELS 3 Yrotation Xrotation Zrotation
            JOINT rightLowerArm
            {
              OFFSET -2.2993322059002854 0 0
              CHANNELS 3 Yrotation Xrotation Zrotation
              JOINT rightHand
              {
                OFFSET -2.395045314457259 0 0
                CHANNELS 3 Yrotation Xrotation Zrotation
                JOINT rightIndexProximal
                {
                  OFFSET -0.5764487688300002 0.0441371204405987 0.17361932004999997
                  CHANNELS 3 Yrotation Xrotation Zrotation
                  JOINT rightIndexIntermediate
                  {
                    OFFSET -0.29573011380000047 -0.01934826376999843 -0.007698921482999974
                    CHANNELS 3 Yrotation Xrotation Zrotation
                    JOINT rightIndexDistal
                    {
                      OFFSET -0.19008373999999884 -0.012503266380000655 -0.0026365778999999897
                      CHANNELS 3 Yrotation Xrotation Zrotation
                      End Site
                      {
                        OFFSET -0.19008373999999884 -0.012503266380000655 -0.0026365778999999897
                      }
                    }
                  }
                }
                JOINT rightMiddleProximal
                {
                  OFFSET -0.5834852037300005 0.05211639405060153 0.02307162440000001
                  CHANNELS 3 Yrotation Xrotation Zrotation
                  JOINT rightMiddleIntermediate
                  {
                    OFFSET -0.33880114510000003 -0.019952774050000954 0.0002455003561999819
                    CHANNELS 3 Yrotation Xrotation Zrotation
                    JOINT rightMiddleDistal
                    {
                      OFFSET -0.20675694929999955 -0.012273788999999091 0.00030209124000002766
                      CHANNELS 3 Yrotation Xrotation Zrotation
                      End Site
                      {
                        OFFSET -0.20675694929999955 -0.012273788999999091 0.00030209124000002766
                      }
                    }
                  }
                }
                JOINT rightLittleProximal
                {
                  OFFSET -0.5346811737299992 -0.011214256288399227 -0.24363941305000003
                  CHANNELS 3 Yrotation Xrotation Zrotation
                  JOINT rightLittleIntermediate
                  {
                    OFFSET -0.21757715980000092 -0.011771559690000988 0.01201554387
                    CHANNELS 3 Yrotation Xrotation Zrotation
                    JOINT rightLittleDistal
                    {
                      OFFSET -0.1475201849000004 -0.00822055339600003 0.006082065407000015
                      CHANNELS 3 Yrotation Xrotation Zrotation
                      End Site
                      {
                        OFFSET -0.1475201849000004 -0.00822055339600003 0.006082065407000015
                      }
                    }
                  }
                }
                JOINT rightRingProximal
                {
                  OFFSET -0.5800810755299999 0.027657985680600072 -0.12066365025000003
                  CHANNELS 3 Yrotation Xrotation Zrotation
                  JOINT rightRingIntermediate
                  {
                    OFFSET -0.26166445029999974 -0.013623118409999302 0.011164098990000045
                    CHANNELS 3 Yrotation Xrotation Zrotation
                    JOINT rightRingDistal
                    {
                      OFFSET -0.17666387530000027 -0.009072900100000503 0.005668185599999959
                      CHANNELS 3 Yrotation Xrotation Zrotation
                      End Site
                      {
                        OFFSET -0.17666387530000027 -0.009072900100000503 0.005668185599999959
                      }
                    }
                  }
                }
                JOINT rightThumbProximal
                {
                  OFFSET -0.10997596379000074 -0.09577489355940072 0.16989765924999997
                  CHANNELS 3 Yrotation Xrotation Zrotation
                  JOINT rightThumbIntermediate
                  {
                    OFFSET -0.31036620999999986 -0.08229339117999834 0.15440884469999996
                    CHANNELS 3 Yrotation Xrotation Zrotation
                    JOINT rightThumbDistal
                    {
                      OFFSET -0.21631306399999906 -0.08825326400000111 0.018656797720000014
                      CHANNELS 3 Yrotation Xrotation Zrotation
                      End Site
                      {
                        OFFSET -0.21631306399999906 -0.08825326400000111 0.018656797720000014
                      }
                    }
                  }
                }
              }
            }
          }
        }
      }
    }
  }
}
MOTION
Frames: 7
Frame Time: 0.03333333333333333
0 11.682712981546562 0 0 0 0 0 0 -5.826343164929014 -0.3712483961610101 -3.6333298826370974 5.838118207697276 0 0 0 0 0 0 0 0 5.826343164929014 0.3712483961610101 -3.6333298826370974 -5.838118207697276 0 0 0 0 0 0 0 -4.610651315171937 0 0 3.0831277533083026 0 0 0 0 0 1.5275236235667615 0 0 0 0 0 0 0 0 0 0 0 0 0 0 0 0 0 0 0 0 0 0 0 0 0 0 0 0 0 0 0 0 0 0 0 0 0 0 0 0 0 0 0 0 0 0 0 0 0 0 0 0 0 0 0 0 1.5275236235667615 0 0 0 0 0 0 0 0 0 0 0 0 0 0 1.5275236235667615 0 0 0 0 0 0 0 0 0 0 0 0 0 0 0 0 0 0 0 0 0 0 0 0 0 0 0 0 0 0 0 0 0 0 0 0 0 0 0 0 0 0 0 0 0 0 0 0 0 0 0 0 0 0 0
0 -7.0806790065185226 2.11783376030606 -180 -15.003201392079589 -1.8805418181007855e-15 13.677786336325074 -31.037103643138153 25.304066841005003 -170.5217889753849 53.33639841480441 -146.26309119931085 30.9068826521279 62.30803769039117 32.64644332293462 0 0 0 -13.680499286900801 -31.038542497160183 -25.307166092633953 170.5284022273776 53.339629952017695 146.2696988622347 -30.916237590734177 62.30581845017189 -32.65579490584392 0 0 0 6.792857850337066e-31 -27.95589709244889 1.9480037051246984e-31 -0.45206601513587524 -5.34722769812676 0.026739318752661497 0 0 0 0.025759621736044843 1.3347641303337436 -8.002015108760572 26.668393853190107 51.26072558851898 -57.52715983598304 -8.002648985185473 0 0 0 0 -7.00032480930298 0 0 0 0 0 0 0 0 0 0 0 0 0 0 0 0 0 0 0 0 0 0 0 0 0 0 0 0 0 0 0 0 0 0 0 0 0 0 0 0 0 0 0 0 0 0 1.2984546495614302 0 0 -0.4738539909412813 0 0 0 0 0 0 0 0 0 0 -0.029243402907338244 1.3350069881234694 7.998422164999694 -26.675598446571748 51.26170792429157 57.51966280215347 7.999140822559021 0 0 0 0 6.996825090742016 0 0 0 0 0 0 0 0 0 0 0 0 0 0 0 0 0 0 0 0 0 0 0 0 0 0 0 0 0 0 0 0 0 0 0 0 0 0 0 0 0 0 0 0 0
0 -7.098952225918126 2.11783376030606 -180 -15.44428375702093 -1.9385595652258925e-15 13.59958369287499 -30.868135443669026 25.791242176990814 -170.5217889753849 53.33639841480441 -146.26309119931085 31.20808894151773 62.15155620746481 33.30991006412791 0 0 0 -13.603313638500858 -30.87022426921868 -25.793848354271116 170.5284022273776 53.339629952017695 146.2696988622347 -31.21702608446131 62.15010871703035 -33.31955314704237 0 0 0 -1.9375224110890448e-31 -27.955899025575214 2.3017248617259335e-31 -0.45206601513587524 -5.34722769812676 0.026739318752661497 0 0 0 -1.2836326423729219 1.6659860838178424 -6.874678398457247 27.1423892232517 51.894737707613515 -58.13041444408027 -9.430050140808032 -0.09286710124840222 -1.679198192813891 1.1594610173795827 0.20101154560236892 -6.159154076516954 0 0 0 0 0 0 0 0 0 0 0 0 0 0 0 0 0 0 0 0 0 0 0 0 0 0 0 0 0 0 0 0 0 0 0 0 0 0 0 0 0 0 0 0 0 0.0024595772386356296 1.241760393195433 0.029003303082247463 0 -0.9392119624808659 0 0 0 0 0 0 0 0 0 0 1.2825317840717325 1.673541560288028 6.867993227526238 -27.14793228656472 51.89390207695618 58.121685114399455 9.426156281585765 -0.09230011476578144 1.7050671480440196 -1.15562856643391 0.1972215281179327 6.132236567561241 0 0 0 0 0 0 0 0 0 0 0 0 0 0 0 0 0 0 0 0 0 0 0 0 0 0 0 0 0 0 0 0 0 0 0 0 0 0 0 0 0 0 0 0 0
0 -7.11722571371 2.11783376030606 -180 -15.888518378689241 -1.997242178735611e-15 13.52317406808261 -30.698559025867908 26.277416881676704 -170.52178332931987 53.33640985344236 -146.263080081921 31.50392602685199 61.99342120247223 33.96834408640607 0 0 0 -13.527911604942897 -30.701303484137384 -26.27955439766194 170.5284022273776 53.339629952017695 146.2696988622347 -31.512477057783812 61.99274484264838 -33.97830532950663 0 0 0 -7.514973927534206e-31 -27.95589709244889 2.7803407587354898e-31 -0.45206601513587524 -5.34722769812676 0.026739318752661497 0 0 0 -2.5916381222126192 2.024270394350553 -5.750583097135526 27.61282378696234 52.5326597993666 -58.73453369507045 -10.86170811766241 -0.22831779327524082 -3.3645018861396503 2.3247718157354194 0.3853915808928071 -5.3118869607291925 0 0 0 0 0 0 0 0 0 0 0 0 0 0 0 0 0 0 0 0 0 0 0 0 0 0 0 0 0 0 0 0 0 0 0 0 0 0 0 0 0 0 0 0 0 0.004891043598823442 1.1850616953576292 0.05800415731672923 0 -1.4050949514368298 0 0 0 0 0 0 0 0 0 0 2.592801968286856 2.0392915265305414 5.7409403882693235 -27.616729597407357 52.529976352199796 58.72454664728561 10.857519834513361 -0.22783434011770348 3.4165499544245774 -2.3171569572714743 0.37739263850397564 5.261554737184546 0 0 0 0 0 0 0 0 0 0 0 0 0 0 0 0 0 0 0 0 0 0 0 0 0 0 0 0 0 0 0 0 0 0 0 0 0 0 0 0 0 0 0 0 0
0 -7.135499201501874 2.11783376030606 -180 -16.33283879042249 -2.0561954542909136e-15 13.44855297890096 -30.528388010916963 26.76260447287664 -170.52179062235422 53.33639269548659 -146.26308882122845 31.79443184880926 61.83368604600197 34.62177429680618 0 0 0 -13.454286926376252 -30.531801668455657 -26.76427107481791 170.52840176098476 53.339612792766374 146.26969570787008 -31.802593402960497 61.83376562968797 -34.632051000697075 0 0 0 -2.6432544491210194e-30 -27.955899025575214 2.030973507666618e-31 -0.45206601513587524 -5.34722769812676 0.026739318752661497 0 0 0 -3.897187476973307 2.4094170482628345 -4.630829280306683 28.079509332077482 53.17428907968999 -59.33952035229282 -12.295327555750523 -0.40667997494047275 -5.053632346945701 3.4953593686561253 0.5528426490736189 -4.459093861631672 0 0 0 0 0 0 0 0 0 0 0 0 0 0 0 0 0 0 0 0 0 0 0 0 0 0 0 0 0 0 0 0 0 0 0 0 0 0 0 0 0 0 0 0 0 0.007293405607499548 1.128359568229895 0.08700462831783769 0 -1.8714880639622595 0 0 0 0 0 0 0 0 0 0 3.9004928898179116 2.4320449539663413 4.618374203679129 -28.081765472749275 53.16975396230398 59.32831617538939 12.290877463444467 -0.4069430772574914 5.132113005248478 -3.483993991351024 0.5402087856546387 4.385366681808519 0 0 0 0 0 0 0 0 0 0 0 0 0 0 0 0 0 0 0 0 0 0 0 0 0 0 0 0 0 0 0 0 0 0 0 0 0 0 0 0 0 0 0 0 0
0 -7.153772689293748 2.11783376030606 -180 -16.777245630889396 -2.115429059224075e-15 13.375717806158805 -30.357643817015816 27.246792294123747 -170.521787565075 53.33639269548659 -146.26309119931085 32.07960825981299 61.672374388711866 35.270203194984624 0 0 0 -13.38244282201456 -30.361732259997595 -27.247996166528498 170.5284022273776 53.339629952017695 146.2696988622347 -32.08745112774246 61.67323804756579 -35.280867056569434 0 0 0 2.886125961349532e-30 -27.95589709244889 1.0033495592588543e-31 -0.45206601513587524 -5.347226411868781 0.0267393103785868 0 0 0 -5.199225165524817 2.8211477494309487 -3.5164943512627325 28.5422529926811 53.81943057020556 -59.94538486053425 -13.728583797336935 -0.6280897750600335 -6.744282922047786 4.670625771400991 0.7030927728372909 -3.601363612490791 0 0 0 0 0 0 0 0 0 0 0 0 0 0 0 0 0 0 0 0 0 0 0 0 0 0 0 0 0 0 0 0 0 0 0 0 0 0 0 0 0 0 0 0 0 0.009667671160350872 1.0716531025631864 0.1160028118799083 0 -2.3383769650077357 0 0 0 0 0 0 0 0 0 0 5.204546399257867 2.851515046255281 3.5013814679049005 -28.542838822241674 53.81303280337331 59.93300703458486 13.723848058484139 -0.6297753858717438 6.849395508402379 -4.655524440051699 0.6853979754980285 3.5042827890780055 0 0 0 0 0 0 0 0 0 0 0 0 0 0 0 0 0 0 0 0 0 0 0 0 0 0 0 0 0 0 0 0 0 0 0 0 0 0 0 0 0 0 0 0 0
0 -7.172045908693351 2.11783376030606 -180 -17.221718062654766 -2.1749491284887682e-15 13.304671761861275 -30.186347689731356 27.729964570674323 -170.5217889753849 53.33639841480441 -146.26309119931085 32.35949784912454 61.50952387062874 35.91365586230655 0 0 0 -13.312367347680413 -30.191112531534465 -27.73072612782888 170.5284008169337 53.339629952017695 146.26969648378886 -32.36702786525399 61.511170561785306 -35.924713579068246 0 0 0 -3.345632487358157e-30 -27.95589709244889 1.0147361361086771e-30 -0.45206601513587524 -5.347226411868781 0.0267393103785868 0 0 0 -6.496725710779945 3.2591130902001226 -2.4086385134531048 29.000788729718543 54.467861976758414 -60.552234825969066 -15.159146539852514 -0.8924928349042257 -8.434145520003069 5.849962932508153 0.8359052688757521 -2.7393055759726717 0 0 0 0 0 0 0 0 0 0 0 0 0 0 0 0 0 0 0 0 0 0 0 0 0 0 0 0 0 0 0 0 0 0 0 0 0 0 0 0 0 0 0 0 0 0.012012846968954492 1.0149422430604085 0.14500079364436672 0 -2.805746959620861 0 0 0 0 0 0 0 0 0 0 6.503926535055091 3.297341035911386 2.3910220861889635 -28.99975072321782 54.459612418076475 60.53865441804599 15.154037280713238 -0.8962767938291495 8.566027029259224 -5.831122388416967 0.8127220611967545 2.618929702828506 0 0 0 0 0 0 0 0 0 0 0 0 0 0 0 0 0 0 0 0 0 0 0 0 0 0 0 0 0 0 0 0 0 0 0 0 0 0 0 0 0 0 0 0 0
